<?xml version="1.0" encoding="iso-8859-1"?>
<!-- Generator: Adobe Illustrator 19.0.0, SVG Export Plug-In . SVG Version: 6.00 Build 0)  -->
<svg version="1.1" id="Capa_1" xmlns="http://www.w3.org/2000/svg" xmlns:xlink="http://www.w3.org/1999/xlink" x="0px" y="0px"
	 viewBox="0 0 511.886 511.886" style="enable-background:new 0 0 511.886 511.886;" xml:space="preserve">
<rect x="83.983" y="223.954" style="fill:#5C9EFF;" width="23.994" height="51.31"/>
<rect x="83.983" y="223.954" style="fill:#94C1FF;" width="7.998" height="45.988"/>
<rect x="403.903" y="223.954" style="fill:#5C9EFF;" width="23.994" height="51.31"/>
<rect x="419.903" y="223.954" style="fill:#2287FF;" width="7.998" height="45.988"/>
<rect x="147.973" y="175.964" style="fill:#5C9EFF;" width="23.995" height="51.32"/>
<rect x="147.973" y="175.964" style="fill:#94C1FF;" width="7.999" height="45.989"/>
<rect x="339.923" y="175.964" style="fill:#5C9EFF;" width="23.994" height="51.32"/>
<rect x="355.923" y="175.964" style="fill:#2287FF;" width="7.998" height="45.989"/>
<g>
	<path style="fill:#94C1FF;" d="M179.961,275.939l-39.991,15.434l-23.994,9.279l-23.994,9.279L4.003,343.923
		c0,0,0-17.512,7.998-23.995l207.951-159.962h7.998v103.976h-7.998L179.961,275.939z"/>
	<path style="fill:#94C1FF;" d="M395.91,300.652l-23.994-9.279l-39.99-15.434l-39.99-11.997h-7.998V159.966h7.998l207.95,159.962
		c7.998,6.483,7.998,23.995,7.998,23.995l-87.979-33.992L395.91,300.652z"/>
</g>
<path style="fill:#FFFFFF;" d="M247.945,463.895l-83.98,23.994c0,0,0-17.598,7.998-23.994l61.423-39.991l7.842-1.679
	c-7.038-33.109-13.278-78.146-13.278-110.295v-47.988V159.966V103.98c0-47.989,8.318-87.979,27.993-87.979
	c19.676,0,27.994,39.99,27.994,87.979v55.986v103.976v47.988c0,32.148-6.241,77.186-13.278,110.295l7.842,1.679l61.423,39.991
	c7.998,6.396,7.998,23.994,7.998,23.994l-83.98-23.994h-7.999H247.945z"/>
<g>
	<path style="fill:#D7E9FF;" d="M219.952,263.942h7.998v-27.47L5.253,333.293c-1.211,5.632-1.25,10.631-1.25,10.631l87.979-33.992
		l23.994-9.279l23.994-9.279l39.991-15.434L219.952,263.942z"/>
	<path style="fill:#D7E9FF;" d="M291.935,263.942h-7.998v-27.47l222.697,96.82c1.21,5.632,1.249,10.631,1.249,10.631l-87.979-33.992
		l-23.994-9.279l-23.994-9.279l-39.99-15.434L291.935,263.942z"/>
</g>
<g>
	<path style="fill:#94C1FF;" d="M241.775,423.904h-8.389l-61.423,39.991c-7.998,6.396-7.998,23.994-7.998,23.994l83.98-23.994h2.75
		L241.775,423.904z"/>
	<path style="fill:#94C1FF;" d="M270.112,423.904h8.389l61.423,39.991c7.998,6.396,7.998,23.994,7.998,23.994l-83.98-23.994h-2.749
		L270.112,423.904z"/>
</g>
<g>
	<path style="fill:#116FFF;" d="M267.94,51.992c-1.444,0-2.835-0.785-3.546-2.155c-0.023-0.039-3.187-5.843-8.451-5.843
		c-5.264,0-8.42,5.784-8.451,5.843c-1.015,1.96-3.444,2.71-5.389,1.707c-1.96-1.019-2.726-3.433-1.703-5.393
		c0.211-0.414,5.39-10.154,15.543-10.154c10.154,0,15.332,9.74,15.543,10.154c1.023,1.96,0.258,4.374-1.702,5.393
		C269.198,51.847,268.565,51.992,267.94,51.992z"/>
	<path style="fill:#116FFF;" d="M245.383,443.977c-1.789,0-3.414-1.202-3.874-3.015c-1.375-5.405-2.82-11.45-4.194-17.901
		c-6.163-29.018-13.364-75.529-13.364-111.131c0-2.21,1.789-3.999,3.999-3.999s3.999,1.789,3.999,3.999
		c0,32.742,6.624,78.567,13.192,109.459c1.343,6.342,2.772,12.294,4.116,17.605c0.547,2.14-0.75,4.318-2.89,4.857
		C246.039,443.938,245.704,443.977,245.383,443.977z"/>
	<path style="fill:#116FFF;" d="M227.95,107.979c-2.21,0-3.999-1.789-3.999-3.999c0-27.654,3.116-91.979,31.992-91.979
		c2.211,0,3.999,1.789,3.999,3.999s-1.788,3.999-3.999,3.999c-14.574,0-23.994,32.965-23.994,83.98
		C231.949,106.19,230.16,107.979,227.95,107.979z"/>
	<path style="fill:#116FFF;" d="M4.003,347.923c-1.601,0-3.116-0.969-3.733-2.562c-0.797-2.054,0.234-4.374,2.289-5.17
		l175.966-67.984l40.279-12.095c2.109-0.613,4.343,0.562,4.976,2.683c0.641,2.117-0.562,4.343-2.679,4.976l-39.991,11.997
		L5.448,347.657C4.971,347.837,4.479,347.923,4.003,347.923z"/>
	<path style="fill:#116FFF;" d="M4.003,347.923c-2.21,0-3.999-1.789-3.999-3.999c0-1.984,0.266-19.636,9.482-27.104
		c1.703-1.39,4.226-1.124,5.624,0.594c1.39,1.719,1.125,4.233-0.593,5.624c-5.319,4.312-6.515,16.84-6.515,20.886
		C8.002,346.133,6.214,347.923,4.003,347.923z"/>
	<path style="fill:#116FFF;" d="M12.001,323.928c-1.195,0-2.382-0.531-3.171-1.562c-1.344-1.75-1.016-4.265,0.734-5.608
		l207.951-159.962c1.742-1.348,4.257-1.031,5.608,0.734c1.344,1.749,1.016,4.261-0.734,5.608L14.438,323.1
		C13.712,323.663,12.852,323.928,12.001,323.928z"/>
	<path style="fill:#116FFF;" d="M83.984,260.584c-2.21,0-3.999-1.789-3.999-3.999v-32.633c0-2.211,1.789-3.999,3.999-3.999
		s3.999,1.788,3.999,3.999v32.633C87.983,258.795,86.194,260.584,83.984,260.584z"/>
	<path style="fill:#116FFF;" d="M107.978,242.107c-2.21,0-3.999-1.788-3.999-3.999v-14.156c0-2.211,1.789-3.999,3.999-3.999
		s3.999,1.788,3.999,3.999v14.156C111.977,240.319,110.189,242.107,107.978,242.107z"/>
	<path style="fill:#116FFF;" d="M107.978,227.951H83.984c-2.21,0-3.999-1.789-3.999-3.999c0-2.211,1.789-3.999,3.999-3.999h23.994
		c2.21,0,3.999,1.788,3.999,3.999C111.977,226.162,110.189,227.951,107.978,227.951z"/>
	<path style="fill:#116FFF;" d="M147.968,211.314c-2.21,0-3.999-1.789-3.999-3.999v-31.353c0-2.21,1.789-3.999,3.999-3.999
		c2.211,0,4,1.789,4,3.999v31.353C151.968,209.525,150.179,211.314,147.968,211.314z"/>
	<path style="fill:#116FFF;" d="M171.963,179.962h-23.995c-2.21,0-3.999-1.788-3.999-3.999c0-2.21,1.789-3.999,3.999-3.999h23.995
		c2.21,0,3.999,1.789,3.999,3.999S174.173,179.962,171.963,179.962z"/>
	<path style="fill:#116FFF;" d="M171.963,192.92c-2.21,0-3.999-1.788-3.999-3.999v-12.958c0-2.21,1.789-3.999,3.999-3.999
		s3.999,1.789,3.999,3.999v12.958C175.962,191.132,174.173,192.92,171.963,192.92z"/>
	<path style="fill:#116FFF;" d="M91.982,321.928c-2.21,0-3.999-1.789-3.999-3.999v-7.998c0-2.21,1.789-3.999,3.999-3.999
		s3.999,1.789,3.999,3.999v7.998C95.981,320.139,94.192,321.928,91.982,321.928z"/>
	<path style="fill:#116FFF;" d="M115.976,312.649c-2.21,0-3.999-1.788-3.999-3.999v-7.998c0-2.21,1.789-3.999,3.999-3.999
		s3.999,1.789,3.999,3.999v7.998C119.975,310.861,118.187,312.649,115.976,312.649z"/>
	<path style="fill:#116FFF;" d="M139.97,303.37c-2.21,0-3.999-1.78-3.999-3.998v-7.999c0-2.202,1.789-3.999,3.999-3.999
		c2.211,0,3.999,1.797,3.999,3.999v7.999C143.969,301.59,142.181,303.37,139.97,303.37z"/>
	<path style="fill:#116FFF;" d="M163.965,491.888c-1.742,0-3.343-1.141-3.843-2.905c-0.609-2.117,0.617-4.328,2.742-4.937
		l83.98-23.995c2.14-0.608,4.334,0.625,4.944,2.75c0.609,2.116-0.617,4.327-2.741,4.937l-83.98,23.994
		C164.699,491.841,164.324,491.888,163.965,491.888z"/>
	<path style="fill:#116FFF;" d="M163.965,491.888c0,0,0,0-0.008,0c-2.203,0-3.991-1.797-3.991-3.999c0-2,0.266-19.73,9.498-27.119
		c1.742-1.374,4.249-1.094,5.624,0.625c1.375,1.727,1.101,4.241-0.625,5.624c-5.304,4.241-6.491,16.512-6.499,20.87
		C167.956,490.099,166.168,491.888,163.965,491.888z"/>
	<path style="fill:#116FFF;" d="M171.963,467.893c-1.304,0-2.585-0.64-3.351-1.812c-1.202-1.858-0.679-4.335,1.172-5.538
		l61.423-39.99c1.844-1.195,4.327-0.68,5.53,1.164c1.203,1.858,0.68,4.335-1.172,5.537l-61.423,39.991
		C173.47,467.683,172.713,467.893,171.963,467.893z"/>
	<path style="fill:#116FFF;" d="M227.95,315.93c-2.21,0-3.999-1.789-3.999-4V103.98c0-2.211,1.789-3.999,3.999-3.999
		s3.999,1.788,3.999,3.999v207.95C231.949,314.141,230.16,315.93,227.95,315.93z"/>
	<path style="fill:#116FFF;" d="M35.995,323.928c-1.539,0-3.015-0.898-3.671-2.406c-0.875-2.023,0.055-4.382,2.078-5.265
		l183.956-79.977c2.008-0.875,4.382,0.047,5.265,2.073c0.875,2.023-0.055,4.382-2.078,5.261L37.589,323.6
		C37.073,323.819,36.526,323.928,35.995,323.928z"/>
	<path style="fill:#116FFF;" d="M171.963,211.954c-1.671,0-3.234-1.058-3.796-2.734c-0.695-2.097,0.437-4.362,2.531-5.057
		l47.988-15.997c2.094-0.695,4.358,0.43,5.062,2.527c0.695,2.097-0.438,4.362-2.531,5.057l-47.989,15.997
		C172.806,211.888,172.385,211.954,171.963,211.954z"/>
	<path style="fill:#116FFF;" d="M266.504,443.977c-0.32,0-0.656-0.039-0.984-0.125c-2.141-0.539-3.437-2.718-2.891-4.857
		c1.344-5.312,2.773-11.264,4.117-17.605c6.568-30.892,13.191-76.717,13.191-109.459c0-2.21,1.789-3.999,4-3.999
		c2.21,0,3.998,1.789,3.998,3.999c0,35.602-7.201,82.113-13.363,111.131c-1.375,6.451-2.82,12.496-4.194,17.901
		C269.917,442.775,268.292,443.977,266.504,443.977z"/>
	<path style="fill:#116FFF;" d="M283.937,107.979c-2.211,0-4-1.789-4-3.999c0-51.016-9.419-83.98-23.994-83.98
		c-2.21,0-3.999-1.789-3.999-3.999s1.789-3.999,3.999-3.999c28.876,0,31.992,64.325,31.992,91.979
		C287.935,106.19,286.147,107.979,283.937,107.979z"/>
	<path style="fill:#116FFF;" d="M507.883,347.923c-0.477,0-0.968-0.086-1.444-0.266l-175.951-67.984l-39.701-11.903
		c-2.117-0.633-3.32-2.858-2.68-4.976c0.633-2.12,2.875-3.292,4.976-2.683l39.991,12.001l176.255,68.078
		c2.054,0.796,3.085,3.116,2.288,5.17C511,346.954,509.485,347.923,507.883,347.923z"/>
	<path style="fill:#116FFF;" d="M507.883,347.923c-2.202,0-3.991-1.789-3.999-3.999c-0.008-4.343-1.195-16.574-6.514-20.886
		c-1.719-1.391-1.984-3.905-0.594-5.624c1.391-1.718,3.913-1.976,5.623-0.594c9.217,7.468,9.482,25.119,9.482,27.104
		c0,2.202-1.788,3.999-3.991,3.999C507.883,347.923,507.883,347.923,507.883,347.923z"/>
	<path style="fill:#116FFF;" d="M499.885,323.928c-0.852,0-1.71-0.266-2.437-0.828l-207.95-159.962
		c-1.75-1.347-2.078-3.859-0.734-5.608c1.352-1.758,3.866-2.074,5.608-0.734l207.95,159.962c1.75,1.344,2.078,3.858,0.734,5.608
		C502.267,323.397,501.081,323.928,499.885,323.928z"/>
	<path style="fill:#116FFF;" d="M427.902,260.584c-2.21,0-3.998-1.789-3.998-3.999v-32.633c0-2.211,1.788-3.999,3.998-3.999
		c2.211,0,4,1.788,4,3.999v32.633C431.902,258.795,430.113,260.584,427.902,260.584z"/>
	<path style="fill:#116FFF;" d="M403.908,242.107c-2.21,0-3.999-1.788-3.999-3.999v-14.156c0-2.211,1.789-3.999,3.999-3.999
		c2.211,0,4,1.788,4,3.999v14.156C407.908,240.319,406.119,242.107,403.908,242.107z"/>
	<path style="fill:#116FFF;" d="M427.902,227.951h-23.994c-2.21,0-3.999-1.789-3.999-3.999c0-2.211,1.789-3.999,3.999-3.999h23.994
		c2.211,0,4,1.788,4,3.999C431.902,226.162,430.113,227.951,427.902,227.951z"/>
	<path style="fill:#116FFF;" d="M363.918,211.314c-2.211,0-3.999-1.789-3.999-3.999v-31.353c0-2.21,1.788-3.999,3.999-3.999
		s3.999,1.789,3.999,3.999v31.353C367.917,209.525,366.129,211.314,363.918,211.314z"/>
	<path style="fill:#116FFF;" d="M363.918,179.962h-23.995c-2.211,0-3.999-1.788-3.999-3.999c0-2.21,1.788-3.999,3.999-3.999h23.994
		c2.211,0,3.999,1.789,3.999,3.999C367.917,178.173,366.129,179.962,363.918,179.962z"/>
	<path style="fill:#116FFF;" d="M339.923,192.92c-2.211,0-3.999-1.788-3.999-3.999v-12.958c0-2.21,1.788-3.999,3.999-3.999
		c2.21,0,3.999,1.789,3.999,3.999v12.958C343.922,191.132,342.133,192.92,339.923,192.92z"/>
	<path style="fill:#116FFF;" d="M419.904,321.928c-2.21,0-3.998-1.789-3.998-3.999v-7.998c0-2.21,1.788-3.999,3.998-3.999
		c2.211,0,4,1.789,4,3.999v7.998C423.904,320.139,422.115,321.928,419.904,321.928z"/>
	<path style="fill:#116FFF;" d="M395.91,312.649c-2.21,0-3.999-1.788-3.999-3.999v-7.998c0-2.21,1.789-3.999,3.999-3.999
		c2.211,0,3.999,1.789,3.999,3.999v7.998C399.909,310.861,398.121,312.649,395.91,312.649z"/>
	<path style="fill:#116FFF;" d="M371.916,303.37c-2.21,0-3.999-1.78-3.999-3.998v-7.999c0-2.202,1.789-3.999,3.999-3.999
		c2.211,0,3.999,1.797,3.999,3.999v7.999C375.915,301.59,374.127,303.37,371.916,303.37z"/>
	<path style="fill:#116FFF;" d="M347.922,491.888c-0.359,0-0.734-0.047-1.102-0.156l-83.98-23.994
		c-2.124-0.609-3.351-2.82-2.741-4.937c0.602-2.125,2.788-3.358,4.944-2.75l83.98,23.995c2.124,0.608,3.351,2.819,2.741,4.937
		C351.264,490.748,349.664,491.888,347.922,491.888z"/>
	<path style="fill:#116FFF;" d="M347.922,491.888c-2.203,0-3.991-1.789-3.999-3.999c-0.008-4.358-1.195-16.629-6.499-20.87
		c-1.726-1.383-1.999-3.897-0.625-5.624c1.383-1.719,3.891-1.999,5.624-0.625c9.232,7.389,9.498,25.119,9.498,27.119
		c0,2.202-1.788,3.999-3.991,3.999C347.922,491.888,347.922,491.888,347.922,491.888z"/>
	<path style="fill:#116FFF;" d="M339.923,467.893c-0.75,0-1.508-0.21-2.18-0.647l-61.423-39.991
		c-1.851-1.202-2.374-3.679-1.171-5.537c1.202-1.844,3.694-2.359,5.529-1.164l61.423,39.99c1.852,1.203,2.375,3.68,1.172,5.538
		C342.508,467.254,341.228,467.893,339.923,467.893z"/>
	<path style="fill:#116FFF;" d="M283.937,315.93c-2.211,0-4-1.789-4-4V103.98c0-2.211,1.789-3.999,4-3.999
		c2.21,0,3.998,1.788,3.998,3.999v207.95C287.935,314.141,286.147,315.93,283.937,315.93z"/>
	<path style="fill:#116FFF;" d="M475.891,323.928c-0.531,0-1.078-0.109-1.594-0.328l-183.956-79.985
		c-2.023-0.879-2.953-3.237-2.078-5.261c0.883-2.026,3.25-2.948,5.265-2.073l183.956,79.977c2.023,0.883,2.953,3.241,2.078,5.265
		C478.906,323.03,477.429,323.928,475.891,323.928z"/>
	<path style="fill:#116FFF;" d="M339.923,211.954c-0.422,0-0.844-0.066-1.266-0.207l-47.988-15.997
		c-2.094-0.695-3.227-2.96-2.531-5.057c0.703-2.098,2.984-3.214,5.062-2.527l47.989,15.997c2.093,0.695,3.226,2.96,2.53,5.057
		C343.157,210.896,341.595,211.954,339.923,211.954z"/>
	<path style="fill:#116FFF;" d="M255.943,499.886c-2.21,0-3.999-1.789-3.999-3.999v-87.979c0-2.21,1.789-3.999,3.999-3.999
		c2.211,0,3.999,1.789,3.999,3.999v87.979C259.942,498.097,258.154,499.886,255.943,499.886z"/>
</g>
<g>
</g>
<g>
</g>
<g>
</g>
<g>
</g>
<g>
</g>
<g>
</g>
<g>
</g>
<g>
</g>
<g>
</g>
<g>
</g>
<g>
</g>
<g>
</g>
<g>
</g>
<g>
</g>
<g>
</g>
</svg>
