<?xml version="1.0" encoding="iso-8859-1"?>
<!-- Generator: Adobe Illustrator 19.0.0, SVG Export Plug-In . SVG Version: 6.00 Build 0)  -->
<svg version="1.1" id="Capa_1" xmlns="http://www.w3.org/2000/svg" xmlns:xlink="http://www.w3.org/1999/xlink" x="0px" y="0px"
	 viewBox="0 0 511.878 511.878" style="enable-background:new 0 0 511.878 511.878;" xml:space="preserve">
<polygon style="fill:#94C1FF;" points="291.931,235.943 291.931,243.941 273.216,243.941 259.934,243.941 259.934,235.943 
	267.936,171.958 275.934,171.958 283.933,171.958 "/>
<path style="fill:#D7E9FF;" d="M255.935,291.93c6.639,0,12.001,5.358,12.001,11.997c0,6.64-5.362,11.998-12.001,11.998
	s-11.997-5.358-11.997-11.998C243.938,297.289,249.296,291.93,255.935,291.93z"/>
<path style="fill:#94C1FF;" d="M403.904,299.928H419.9c0,5.679-1.202,11.114-3.358,15.997h-7.998c-4.327,0-8.561-0.078-12.638-0.398
	v-0.562v-15.036L403.904,299.928L403.904,299.928z"/>
<g>
	<path style="fill:#D7E9FF;" d="M363.914,243.941c30.945,0,55.986,25.033,55.986,55.986h-15.996h-7.998v15.036v0.562
		c-17.995-0.961-33.992-3.922-47.988-8.318v-63.267L363.914,243.941L363.914,243.941z"/>
	<path style="fill:#D7E9FF;" d="M291.931,243.941h55.986v63.267c-42.154-13.122-66.312-38.233-71.983-55.269l-2.718-7.998
		L291.931,243.941L291.931,243.941z"/>
</g>
<path style="fill:#94C1FF;" d="M408.543,315.924h7.998c-6.162,14.074-20.245,23.994-36.632,23.994H267.936
	c-39.834,0-71.986-32.234-71.986-71.983l-143.966-7.998L27.989,291.93H19.99l7.999-39.99l-7.999-39.991h7.999l23.994,31.993h207.951
	h13.282l2.718,7.998c5.671,17.035,29.829,42.146,71.983,55.269c13.996,4.396,29.993,7.357,47.988,8.318
	C399.983,315.846,404.216,315.924,408.543,315.924z M267.936,303.927c0-6.639-5.362-11.997-12.001-11.997
	s-11.997,5.358-11.997,11.997c0,6.64,5.358,11.998,11.997,11.998C262.574,315.924,267.936,310.566,267.936,303.927z"/>
<path style="fill:#5C9EFF;" d="M379.91,331.921H267.936c-39.834,0-65.289-29.907-65.289-69.656l-154.459-8.607L23.323,291.93h4.667
	l23.994-31.992l143.966,7.998c0,39.749,32.152,71.983,71.986,71.983H379.91c16.387,0,30.47-9.92,36.632-23.994h-4.796
	C404.451,325.579,392.954,331.921,379.91,331.921z"/>
<g>
	<polygon style="fill:#D7E9FF;" points="21.616,211.948 47.734,250.189 259.934,251.939 275.934,251.939 273.216,243.941 
		259.934,243.941 51.983,243.941 27.989,211.948 	"/>
	<rect x="395.909" y="299.928" style="fill:#D7E9FF;" width="7.998" height="15.997"/>
</g>
<g>
	<path style="fill:#FFFFFF;" d="M371.193,312.768l16.957-63.258c-4.757-2.296-9.889-3.921-15.285-4.788l-17.309,64.609
		C360.555,310.652,365.734,311.832,371.193,312.768z"/>
	<path style="fill:#FFFFFF;" d="M379.168,313.918l16.168-60.337c-1.147-0.781-2.351-1.484-3.554-2.179l-16.598,61.946
		C376.504,313.543,377.825,313.746,379.168,313.918z"/>
	<path style="fill:#FFFFFF;" d="M316.378,293.438l13.262-49.496h-16.559l-10.763,40.154
		C306.537,287.329,311.2,290.454,316.378,293.438z"/>
	<path style="fill:#FFFFFF;" d="M323.627,297.311l14.293-53.37h-4.14l-13.824,51.62C321.095,296.178,322.423,296.71,323.627,297.311
		z"/>
</g>
<g>
	<path style="fill:#116FFF;" d="M40.229,255.938c-2.207,0-4.038-1.789-4.038-3.999s1.75-3.999,3.96-3.999h0.078
		c2.21,0,3.999,1.789,3.999,3.999S42.439,255.938,40.229,255.938z"/>
	<path style="fill:#116FFF;" d="M507.879,159.96H283.933c-2.211,0-4-1.789-4-3.999c0-2.21,1.789-3.999,4-3.999h223.946
		c2.211,0,3.999,1.789,3.999,3.999C511.878,158.172,510.09,159.96,507.879,159.96z"/>
	<path style="fill:#116FFF;" d="M267.936,159.96H43.989c-2.21,0-3.999-1.789-3.999-3.999c0-2.21,1.789-3.999,3.999-3.999h223.947
		c2.211,0,3.999,1.789,3.999,3.999C271.935,158.172,270.147,159.96,267.936,159.96z"/>
	<path style="fill:#116FFF;" d="M275.934,175.957c-2.21,0-3.999-1.788-3.999-3.999v-23.994c0-2.21,1.789-3.999,3.999-3.999
		c2.211,0,3.999,1.789,3.999,3.999v23.994C279.933,174.168,278.145,175.957,275.934,175.957z"/>
	<path style="fill:#116FFF;" d="M283.933,175.957h-15.997c-2.21,0-3.999-1.788-3.999-3.999c0-2.21,1.789-3.999,3.999-3.999h15.997
		c2.21,0,3.998,1.789,3.998,3.999C287.931,174.168,286.143,175.957,283.933,175.957z"/>
	<path style="fill:#116FFF;" d="M259.942,239.942c-0.164,0-0.332-0.008-0.5-0.031c-2.19-0.273-3.745-2.273-3.472-4.468l7.998-63.985
		c0.273-2.187,2.266-3.796,4.468-3.468c2.188,0.273,3.741,2.273,3.468,4.468l-7.998,63.985
		C263.652,238.465,261.93,239.942,259.942,239.942z"/>
	<path style="fill:#116FFF;" d="M291.931,239.942c-1.992,0-3.719-1.477-3.969-3.499l-7.998-63.985
		c-0.273-2.194,1.281-4.194,3.469-4.468c2.218-0.328,4.186,1.281,4.467,3.468l7.998,63.985c0.273,2.195-1.28,4.194-3.468,4.468
		C292.259,239.934,292.087,239.942,291.931,239.942z"/>
	<path style="fill:#116FFF;" d="M419.9,303.927c-2.218,0-3.998-1.788-3.998-3.999c0-28.665-23.323-51.987-51.988-51.987
		c-2.211,0-3.999-1.789-3.999-3.999c0-2.21,1.788-3.999,3.999-3.999c33.07,0,59.986,26.907,59.986,59.985
		C423.9,302.139,422.103,303.927,419.9,303.927z"/>
	<path style="fill:#116FFF;" d="M379.91,343.918c-2.21,0-3.999-1.789-3.999-3.999c0-2.211,1.789-4,3.999-4
		c19.847,0,35.992-16.145,35.992-35.991c0-2.21,1.788-3.999,3.998-3.999c2.211,0,4,1.789,4,3.999
		C423.9,324.181,404.169,343.918,379.91,343.918z"/>
	<path style="fill:#116FFF;" d="M379.91,343.918H267.936c-2.21,0-3.999-1.789-3.999-3.999c0-2.211,1.789-4,3.999-4H379.91
		c2.211,0,3.999,1.789,3.999,4C383.909,342.129,382.121,343.918,379.91,343.918z"/>
	<path style="fill:#116FFF;" d="M267.936,343.918c-41.896,0-75.981-34.086-75.981-75.982c0-2.21,1.788-3.999,3.999-3.999
		c2.21,0,3.999,1.789,3.999,3.999c0,37.483,30.496,67.983,67.983,67.983c2.211,0,3.999,1.789,3.999,4
		C271.935,342.129,270.147,343.918,267.936,343.918z"/>
	<path style="fill:#116FFF;" d="M363.914,247.94H51.987c-2.21,0-3.999-1.789-3.999-3.999c0-2.21,1.789-3.999,3.999-3.999h311.926
		c2.211,0,3.999,1.789,3.999,3.999C367.913,246.151,366.125,247.94,363.914,247.94z"/>
	<path style="fill:#116FFF;" d="M195.958,271.935c-0.074,0-0.148,0-0.227-0.008l-143.966-7.998c-2.203-0.117-3.894-2.008-3.769-4.21
		c0.121-2.21,1.894-4.03,4.214-3.772l143.966,7.998c2.202,0.117,3.894,2.008,3.769,4.21
		C199.828,270.286,198.062,271.935,195.958,271.935z"/>
	<path style="fill:#116FFF;" d="M51.991,247.94c-1.218,0-2.417-0.555-3.203-1.602l-23.994-31.992
		c-1.328-1.765-0.968-4.272,0.801-5.601c1.761-1.327,4.265-0.96,5.597,0.805l23.994,31.993c1.328,1.765,0.968,4.272-0.801,5.6
		C53.667,247.682,52.827,247.94,51.991,247.94z"/>
	<path style="fill:#116FFF;" d="M27.989,295.928c-0.836,0-1.675-0.258-2.394-0.797c-1.769-1.327-2.128-3.834-0.801-5.6
		l23.994-31.992c1.332-1.766,3.835-2.125,5.597-0.805c1.769,1.328,2.128,3.835,0.801,5.6l-23.994,31.994
		C30.407,295.375,29.208,295.928,27.989,295.928z"/>
	<path style="fill:#116FFF;" d="M27.993,215.948h-7.999c-2.21,0-3.999-1.789-3.999-4s1.789-3.999,3.999-3.999h7.999
		c2.21,0,3.999,1.789,3.999,3.999S30.204,215.948,27.993,215.948z"/>
	<path style="fill:#116FFF;" d="M27.993,295.928h-7.999c-2.21,0-3.999-1.788-3.999-3.999c0-2.21,1.789-3.999,3.999-3.999h7.999
		c2.21,0,3.999,1.789,3.999,3.999C31.992,294.141,30.204,295.928,27.993,295.928z"/>
	<path style="fill:#116FFF;" d="M19.999,295.928c-0.257,0-0.523-0.023-0.789-0.078c-2.164-0.43-3.569-2.538-3.136-4.701l7.842-39.21
		l-7.842-39.209c-0.433-2.164,0.973-4.272,3.136-4.702c2.195-0.46,4.276,0.968,4.706,3.14l7.998,39.99
		c0.105,0.516,0.105,1.047,0,1.562l-7.998,39.99C23.537,294.617,21.866,295.928,19.999,295.928z"/>
	<path style="fill:#116FFF;" d="M408.559,319.923c-78.755,0-127.188-39.014-136.421-66.718c-0.695-2.093,0.438-4.358,2.531-5.061
		c2.124-0.711,4.357,0.438,5.061,2.53c6.655,19.987,46.911,61.251,128.829,61.251c2.211,0,3.999,1.789,3.999,4
		C412.558,318.135,410.77,319.923,408.559,319.923z"/>
	<path style="fill:#116FFF;" d="M347.918,304.326c-2.211,0-3.999-1.788-3.999-3.999v-48.387c0-2.21,1.788-3.999,3.999-3.999
		s3.999,1.789,3.999,3.999v48.387C351.917,302.538,350.128,304.326,347.918,304.326z"/>
	<path style="fill:#116FFF;" d="M395.906,367.913c-2.21,0-3.999-1.789-3.999-3.999c0-2.211,1.789-3.999,3.999-3.999
		c2.203,0,3.999-1.797,3.999-3.999c0-2.211,1.789-3.999,3.999-3.999c2.211,0,4,1.788,4,3.999
		C407.904,362.531,402.522,367.913,395.906,367.913z"/>
	<path style="fill:#116FFF;" d="M395.906,367.913H211.95c-2.21,0-3.999-1.789-3.999-3.999c0-2.211,1.789-3.999,3.999-3.999h183.956
		c2.211,0,3.999,1.788,3.999,3.999C399.905,366.124,398.117,367.913,395.906,367.913z"/>
	<path style="fill:#116FFF;" d="M347.918,367.913c-1.469,0-2.875-0.812-3.577-2.211l-7.998-15.996
		c-0.984-1.976-0.188-4.374,1.788-5.366c1.977-0.999,4.374-0.18,5.366,1.789l7.998,15.996c0.984,1.977,0.188,4.374-1.788,5.366
		C349.136,367.78,348.527,367.913,347.918,367.913z"/>
	<path style="fill:#116FFF;" d="M259.934,367.913c-0.602,0-1.21-0.133-1.784-0.422c-1.977-0.992-2.777-3.39-1.789-5.366
		l7.998-15.996c0.992-1.969,3.39-2.788,5.366-1.789c1.976,0.992,2.772,3.391,1.788,5.366l-7.998,15.996
		C262.812,367.1,261.403,367.913,259.934,367.913z"/>
	<path style="fill:#116FFF;" d="M39.99,291.93c-9.626,0-18.925-3.468-26.189-9.763c-1.668-1.445-1.848-3.977-0.402-5.64
		c1.453-1.672,3.972-1.851,5.643-0.406c7.202,6.249,17.031,8.967,26.517,7.326c2.171-0.367,4.245,1.086,4.624,3.265
		c0.375,2.172-1.082,4.242-3.257,4.616C44.633,291.727,42.302,291.93,39.99,291.93z M60.876,285.26c-1.25,0-2.48-0.586-3.257-1.68
		c-1.285-1.796-0.867-4.288,0.93-5.577c7.896-5.631,12.771-14.395,13.376-24.033c0.023-0.352,0.09-0.688,0.191-1
		c-0.086-0.328-0.133-0.672-0.133-1.031c0-9.67-4.312-18.722-11.826-24.838c-1.71-1.398-1.968-3.913-0.574-5.624
		c1.394-1.718,3.917-1.968,5.627-0.578c9.384,7.646,14.77,18.957,14.77,31.04c0,0.438-0.07,0.859-0.199,1.25
		c0.105,0.406,0.152,0.836,0.125,1.281c-0.754,12.053-6.846,23.003-16.711,30.048C62.493,285.018,61.68,285.26,60.876,285.26z
		 M7.014,270.372c-1.542,0-3.011-0.89-3.667-2.397C1.125,262.906,0,257.517,0,251.94c0-6.366,1.535-12.708,4.44-18.332
		c1.016-1.96,3.425-2.733,5.39-1.718c1.96,1.015,2.729,3.429,1.718,5.389c-2.355,4.561-3.55,9.49-3.55,14.661
		c0,4.46,0.898,8.779,2.675,12.833c0.887,2.022-0.035,4.374-2.058,5.264C8.091,270.263,7.548,270.372,7.014,270.372z
		 M18.191,227.296c-1.207,0-2.398-0.547-3.187-1.578c-1.335-1.757-0.996-4.265,0.761-5.6c9.549-7.256,21.995-9.857,33.648-7.053
		c2.148,0.523,3.468,2.68,2.949,4.827c-0.516,2.156-2.664,3.444-4.823,2.953c-9.322-2.234-19.289-0.18-26.932,5.631
		C19.885,227.031,19.034,227.296,18.191,227.296z"/>
	<path style="fill:#116FFF;" d="M419.9,303.927h-23.994c-2.21,0-3.999-1.788-3.999-3.999c0-2.21,1.789-3.999,3.999-3.999H419.9
		c2.203,0,4,1.789,4,3.999C423.9,302.139,422.103,303.927,419.9,303.927z"/>
	<path style="fill:#116FFF;" d="M395.906,318.956c-2.21,0-3.999-1.789-3.999-3.999v-15.028c0-2.21,1.789-3.999,3.999-3.999
		c2.211,0,3.999,1.789,3.999,3.999v15.028C399.905,317.167,398.117,318.956,395.906,318.956z"/>
	<path style="fill:#116FFF;" d="M403.904,303.927c-2.21,0-3.999-1.788-3.999-3.999v-7.998c0-2.21,1.789-3.999,3.999-3.999
		c2.211,0,4,1.789,4,3.999v7.998C407.904,302.139,406.115,303.927,403.904,303.927z"/>
	<path style="fill:#116FFF;" d="M379.91,316.917c-2.21,0-3.999-1.788-3.999-3.999v-20.987c0-2.21,1.789-3.999,3.999-3.999
		c2.211,0,3.999,1.789,3.999,3.999v20.987C383.909,315.128,382.121,316.917,379.91,316.917z"/>
	<path style="fill:#116FFF;" d="M451.893,183.955h-63.985c-2.21,0-3.999-1.789-3.999-4c0-2.21,1.789-3.999,3.999-3.999h63.985
		c2.21,0,3.999,1.789,3.999,3.999C455.892,182.167,454.103,183.955,451.893,183.955z"/>
	<path style="fill:#116FFF;" d="M371.912,183.955h-7.998c-2.211,0-3.999-1.789-3.999-4c0-2.21,1.788-3.999,3.999-3.999h7.998
		c2.211,0,3.999,1.789,3.999,3.999C375.911,182.167,374.123,183.955,371.912,183.955z"/>
	<path style="fill:#116FFF;" d="M211.95,199.951h-95.978c-2.21,0-3.999-1.789-3.999-3.999s1.789-3.999,3.999-3.999h95.978
		c2.21,0,3.999,1.789,3.999,3.999S214.16,199.951,211.95,199.951z"/>
	<path style="fill:#116FFF;" d="M99.976,199.951h-7.998c-2.21,0-3.999-1.789-3.999-3.999s1.789-3.999,3.999-3.999h7.998
		c2.21,0,3.999,1.789,3.999,3.999S102.187,199.951,99.976,199.951z"/>
	<path style="fill:#116FFF;" d="M255.939,319.923c-8.822,0-15.996-7.178-15.996-15.996s7.174-15.996,15.996-15.996
		c8.826,0,15.996,7.178,15.996,15.996S264.765,319.923,255.939,319.923z M255.939,295.928c-4.409,0-7.998,3.586-7.998,7.998
		c0,4.413,3.589,7.998,7.998,7.998c4.413,0,7.998-3.585,7.998-7.998C263.937,299.514,260.352,295.928,255.939,295.928z"/>
</g>
<g>
</g>
<g>
</g>
<g>
</g>
<g>
</g>
<g>
</g>
<g>
</g>
<g>
</g>
<g>
</g>
<g>
</g>
<g>
</g>
<g>
</g>
<g>
</g>
<g>
</g>
<g>
</g>
<g>
</g>
</svg>
